<svg width="100" height="30" viewBox="0 0 100 30" xmlns="http://www.w3.org/2000/svg"><title>3A55C66B-BA40-4980-8C4E-3DEB687EE0C2</title><g fill-rule="nonzero" fill="none"><path d="M96.442 30H3.503C1.572 30 0 28.404 0 26.45V3.545C0 1.59 1.572 0 3.503 0h92.94C98.372 0 100 1.59 100 3.545V26.45c0 1.954-1.627 3.55-3.558 3.55z" fill="#A6A6A6"/><path d="M99.283 26.451c0 1.587-1.27 2.872-2.84 2.872H3.503c-1.57 0-2.844-1.285-2.844-2.872V3.544C.66 1.957 1.933.667 3.503.667h92.94c1.57 0 2.84 1.29 2.84 2.877V26.45z" fill="#000"/><g fill="#FFF"><path d="M22.317 14.838c-.021-2.417 1.955-3.593 2.045-3.648-1.119-1.652-2.854-1.878-3.463-1.896-1.458-.155-2.87.883-3.613.883-.757 0-1.9-.868-3.132-.842-1.585.024-3.068.954-3.881 2.397-1.679 2.942-.427 7.266 1.181 9.644.805 1.165 1.745 2.465 2.975 2.42 1.204-.051 1.653-.778 3.106-.778 1.44 0 1.861.777 3.116.748 1.292-.021 2.105-1.17 2.882-2.345.93-1.335 1.303-2.65 1.317-2.717-.03-.011-2.509-.969-2.533-3.866zM19.947 7.73c.647-.82 1.09-1.936.967-3.067-.937.042-2.109.656-2.784 1.458-.597.706-1.13 1.864-.992 2.953 1.052.08 2.133-.538 2.809-1.345z"/></g><g fill="#FFF"><path d="M39.737 23.628h-1.682l-.922-2.932H33.93l-.877 2.932h-1.638l3.173-9.981h1.96l3.189 9.981zm-2.881-4.162l-.834-2.606c-.088-.266-.253-.893-.497-1.88h-.03a73.31 73.31 0 0 1-.468 1.88l-.818 2.606h2.647zM47.898 19.941c0 1.224-.327 2.192-.98 2.902-.585.632-1.312.948-2.18.948-.936 0-1.608-.34-2.018-1.022h-.03v3.791h-1.579V18.8c0-.77-.02-1.559-.058-2.369h1.388l.089 1.14h.03c.526-.859 1.325-1.288 2.398-1.288.838 0 1.538.335 2.098 1.007.562.672.842 1.555.842 2.651zm-1.61.059c0-.701-.155-1.279-.467-1.733-.342-.474-.8-.711-1.375-.711-.39 0-.744.132-1.06.392a1.823 1.823 0 0 0-.622 1.03c-.048.198-.073.36-.073.487v1.2c0 .524.159.966.476 1.326.317.361.729.541 1.235.541.595 0 1.058-.232 1.39-.696.331-.464.497-1.076.497-1.836zM56.073 19.941c0 1.224-.326 2.192-.98 2.902-.585.632-1.312.948-2.179.948-.936 0-1.609-.34-2.018-1.022h-.03v3.791h-1.579V18.8c0-.77-.02-1.559-.058-2.369h1.389l.088 1.14h.03c.525-.859 1.325-1.288 2.398-1.288.838 0 1.538.335 2.1 1.007.559.672.84 1.555.84 2.651zM54.464 20c0-.701-.156-1.279-.468-1.733-.342-.474-.799-.711-1.375-.711-.39 0-.743.132-1.06.392a1.822 1.822 0 0 0-.621 1.03 2.16 2.16 0 0 0-.073.487v1.2c0 .524.158.966.474 1.326.317.36.729.541 1.237.541.595 0 1.058-.232 1.389-.696.332-.464.497-1.076.497-1.836zM65.214 20.829c0 .849-.291 1.54-.875 2.073-.643.583-1.537.874-2.686.874-1.06 0-1.91-.207-2.554-.622l.365-1.333a4.289 4.289 0 0 0 2.283.638c.595 0 1.058-.137 1.39-.408.332-.272.497-.636.497-1.09a1.4 1.4 0 0 0-.41-1.024c-.271-.276-.725-.534-1.36-.771-1.725-.652-2.588-1.607-2.588-2.862 0-.821.303-1.494.908-2.017.603-.524 1.407-.786 2.413-.786.897 0 1.642.158 2.237.474l-.395 1.303c-.555-.306-1.183-.459-1.886-.459-.556 0-.99.139-1.301.415a1.192 1.192 0 0 0-.395.904c0 .394.15.72.453.977.263.237.74.494 1.434.77.848.346 1.47.75 1.872 1.214.399.462.598 1.04.598 1.73zM70.436 17.631h-1.741v3.494c0 .889.306 1.333.921 1.333.283 0 .517-.025.702-.074l.043 1.214c-.31.118-.72.177-1.228.177-.623 0-1.11-.193-1.463-.578-.35-.385-.526-1.032-.526-1.94V17.63h-1.037v-1.2h1.037v-1.317l1.55-.474v1.792h1.742v1.201zM78.29 19.97c0 1.107-.313 2.015-.937 2.725-.654.731-1.522 1.096-2.604 1.096-1.043 0-1.873-.35-2.493-1.051-.619-.7-.929-1.585-.929-2.65 0-1.116.319-2.03.958-2.74.638-.71 1.499-1.066 2.58-1.066 1.044 0 1.883.35 2.516 1.052.606.68.909 1.558.909 2.634zm-1.639.052c0-.664-.14-1.233-.424-1.708-.33-.574-.804-.86-1.417-.86-.635 0-1.117.286-1.449.86-.283.476-.423 1.054-.423 1.738 0 .664.14 1.233.423 1.707.342.574.819.861 1.435.861.603 0 1.076-.293 1.417-.876.291-.484.438-1.059.438-1.722zM83.423 17.837a2.71 2.71 0 0 0-.498-.044c-.555 0-.985.212-1.287.638-.263.374-.395.848-.395 1.42v3.777h-1.579l.015-4.93c0-.83-.02-1.585-.059-2.266h1.376l.057 1.377h.044c.167-.474.43-.855.79-1.14a1.894 1.894 0 0 1 1.141-.386c.146 0 .278.01.395.03v1.524zM90.486 19.689c0 .287-.019.528-.058.725H85.69c.019.711.248 1.255.688 1.63.399.335.915.503 1.55.503.7 0 1.34-.113 1.916-.34l.248 1.11c-.673.297-1.467.444-2.383.444-1.102 0-1.968-.328-2.597-.984-.628-.657-.943-1.538-.943-2.643 0-1.086.292-1.99.878-2.71.614-.77 1.443-1.154 2.486-1.154 1.024 0 1.8.384 2.326 1.154.417.611.627 1.367.627 2.265zm-1.506-.415c.01-.474-.093-.883-.307-1.229-.273-.445-.693-.667-1.258-.667-.516 0-.936.217-1.257.652-.263.346-.42.76-.468 1.244h3.29z"/></g><g fill="#FFF"><path d="M36.333 7.507c0 .883-.261 1.547-.783 1.993-.484.412-1.171.618-2.062.618-.441 0-.82-.02-1.135-.058V5.237a8.278 8.278 0 0 1 1.337-.102c.848 0 1.487.186 1.918.56.483.422.725 1.026.725 1.812zm-.818.022c0-.573-.15-1.011-.45-1.317-.298-.306-.735-.459-1.31-.459-.245 0-.454.017-.626.051v3.667c.095.015.27.022.524.022.594 0 1.053-.167 1.376-.502.323-.334.486-.822.486-1.462zM40.673 8.278c0 .544-.153.989-.46 1.339-.321.359-.747.538-1.279.538-.513 0-.92-.172-1.225-.517-.304-.344-.456-.778-.456-1.302 0-.547.157-.996.47-1.345.315-.349.737-.524 1.269-.524.512 0 .924.172 1.236.516.296.335.445.767.445 1.295zm-.805.025c0-.326-.07-.606-.208-.839-.163-.282-.395-.423-.696-.423-.312 0-.55.141-.712.423-.14.233-.208.518-.208.853 0 .327.07.607.208.84.168.282.402.423.704.423.297 0 .53-.143.697-.43.143-.238.215-.52.215-.847zM46.493 6.54L45.4 10.074h-.711l-.453-1.535a11.609 11.609 0 0 1-.28-1.143h-.015c-.067.389-.16.769-.28 1.142l-.481 1.536h-.72l-1.027-3.536h.798l.395 1.681c.095.397.174.776.237 1.135h.014c.058-.296.153-.672.288-1.127l.496-1.688h.632l.475 1.652c.115.402.208.79.28 1.164h.022c.052-.364.131-.752.237-1.164l.423-1.652h.763zM50.517 10.075h-.776V8.05c0-.624-.234-.936-.704-.936a.697.697 0 0 0-.56.257.92.92 0 0 0-.216.606v2.097h-.777V7.55c0-.311-.01-.648-.028-1.012h.683l.036.552h.021a1.13 1.13 0 0 1 .403-.426 1.3 1.3 0 0 1 .703-.199c.326 0 .597.107.813.32.268.262.402.653.402 1.172v2.118zM52.658 10.075h-.776V4.917h.776zM57.228 8.278c0 .544-.153.989-.46 1.339-.321.359-.748.538-1.28.538-.512 0-.92-.172-1.224-.517-.304-.344-.456-.778-.456-1.302 0-.547.156-.996.47-1.345.315-.349.737-.524 1.268-.524.513 0 .924.172 1.237.516.296.335.445.767.445 1.295zm-.806.025c0-.326-.07-.606-.208-.839-.162-.282-.395-.423-.695-.423-.313 0-.55.141-.712.423-.14.233-.208.518-.208.853 0 .327.07.607.208.84.168.282.402.423.704.423.296 0 .528-.143.696-.43.144-.238.215-.52.215-.847zM60.985 10.075h-.697l-.058-.407h-.021c-.239.324-.579.487-1.02.487-.33 0-.596-.107-.797-.32a1.011 1.011 0 0 1-.273-.72c0-.432.177-.761.535-.99.357-.227.86-.34 1.506-.334v-.066c0-.466-.241-.698-.725-.698a1.61 1.61 0 0 0-.91.261l-.158-.516c.324-.203.725-.305 1.197-.305.913 0 1.37.488 1.37 1.463v1.302c0 .353.018.634.051.843zM60.18 8.86v-.545c-.856-.016-1.284.222-1.284.712 0 .184.049.322.149.415.1.092.227.138.379.138.17 0 .33-.055.475-.164a.67.67 0 0 0 .281-.556zM65.396 10.075h-.689l-.036-.568h-.021c-.22.432-.595.648-1.122.648-.42 0-.771-.167-1.049-.502-.278-.334-.416-.769-.416-1.302 0-.572.15-1.036.453-1.39.292-.33.65-.494 1.077-.494.47 0 .797.16.984.48h.015v-2.03h.777v4.205c0 .345.009.662.027.953zm-.804-1.491v-.59a.897.897 0 0 0-.302-.724.757.757 0 0 0-.52-.192.794.794 0 0 0-.683.35c-.165.232-.248.53-.248.894 0 .35.079.633.238.851a.796.796 0 0 0 .679.349.744.744 0 0 0 .613-.291.976.976 0 0 0 .223-.647zM72.036 8.278c0 .544-.154.989-.46 1.339-.322.359-.747.538-1.28.538-.512 0-.92-.172-1.225-.517-.304-.344-.455-.778-.455-1.302 0-.547.156-.996.47-1.345.314-.349.736-.524 1.269-.524.512 0 .924.172 1.235.516.297.335.446.767.446 1.295zm-.805.025c0-.326-.07-.606-.208-.839-.164-.282-.395-.423-.697-.423-.311 0-.548.141-.712.423-.14.233-.208.518-.208.853 0 .327.07.607.208.84.168.282.402.423.705.423.296 0 .53-.143.697-.43.143-.238.215-.52.215-.847zM76.21 10.075h-.776V8.05c0-.624-.234-.936-.704-.936a.694.694 0 0 0-.56.257.916.916 0 0 0-.216.606v2.097h-.777V7.55c0-.311-.009-.648-.027-1.012h.681l.036.552h.022c.091-.171.226-.313.402-.426.211-.132.446-.199.705-.199.325 0 .596.107.811.32.27.262.403.653.403 1.172v2.118zM81.434 7.128h-.855v1.718c0 .436.152.654.453.654.14 0 .255-.012.346-.036l.02.596a1.724 1.724 0 0 1-.603.088c-.307 0-.545-.095-.718-.284-.173-.189-.26-.507-.26-.953V7.128h-.51v-.589h.51v-.648l.762-.232v.88h.854v.589h.001zM85.544 10.075h-.777v-2.01c0-.634-.234-.951-.703-.951-.36 0-.606.183-.741.551a1 1 0 0 0-.036.283v2.126h-.776V4.917h.776v2.13h.014a1.17 1.17 0 0 1 1.05-.58c.32 0 .587.106.798.32.263.266.395.662.395 1.185v2.103zM89.783 8.14c0 .14-.01.26-.029.356h-2.328c.01.35.121.616.337.8.197.165.451.248.762.248.345 0 .659-.056.942-.168l.121.547c-.331.145-.72.218-1.172.218-.54 0-.966-.162-1.275-.484-.31-.322-.462-.755-.462-1.298 0-.533.142-.977.43-1.331.301-.378.708-.567 1.221-.567.503 0 .884.188 1.142.566.208.3.311.672.311 1.113zm-.74-.204a1.069 1.069 0 0 0-.151-.603c-.135-.219-.34-.328-.618-.328a.734.734 0 0 0-.618.32c-.129.17-.205.374-.23.611h1.616z"/></g></g></svg>