<?xml version="1.0" encoding="UTF-8"?>
<svg width="30px" height="30px" viewBox="0 0 30 30" version="1.1" xmlns="http://www.w3.org/2000/svg" xmlns:xlink="http://www.w3.org/1999/xlink">
    <!-- Generator: Sketch 48.2 (47327) - http://www.bohemiancoding.com/sketch -->
    <title>Fill-1</title>
    <desc>Created with Sketch.</desc>
    <defs></defs>
    <g id="Page-1" stroke="none" stroke-width="1" fill="none" fill-rule="evenodd">
        <path d="M30,15 C30,23.2775 23.2775,30 15,30 C10.7275,30 6.87875,28.20875 4.14625,25.35 L12.1725,17.32375 C12.2825,17.21375 12.2825,17.02625 12.1725,16.915 L11.46625,16.21 C11.35625,16.09875 11.1675,16.09875 11.0575,16.21 L3.11,24.14 C1.1625,21.6125 0,18.44 0,15 C0,6.70625 6.70625,0 15,0 C23.2775,0 30,6.70625 30,15 Z M9.4075,14.56 L5.215,18.75375 C5.12,18.8475 5.12,19.0525 5.215,19.16125 L5.9375,19.87 C6.0475,19.97875 6.235,19.97875 6.345,19.87 L10.54,15.675 C10.63375,15.565 10.63375,15.3775 10.54,15.2675 L9.8175,14.56 C9.7075,14.45 9.51875,14.45 9.4075,14.56 Z M18.33,16.75875 L20.81125,14.29375 C20.92125,14.18375 20.92125,13.99375 20.81125,13.88375 L17.07375,10.14625 C16.9475,10.005 16.7275,9.95875 16.63375,9.95875 L6.80125,9.95875 C6.53375,9.95875 6.2825,10.14625 6.1575,10.25625 L5.26125,11.13625 C5.12,11.27625 5.215,11.54375 5.435,11.54375 L12.37625,11.54375 L10.2725,13.64875 C10.1625,13.75875 10.1625,13.9475 10.2725,14.0575 L12.66,16.445 C12.76875,16.555 12.95875,16.555 13.0675,16.445 L17.105,12.42375 L18.785,14.07375 L17.215,15.645 C17.105,15.755 17.105,15.9425 17.215,16.0525 L17.92125,16.75875 C18.03125,16.86875 18.22,16.86875 18.33,16.75875 Z M13.19375,24.5975 C13.19375,23.7325 12.48625,23.02625 11.6225,23.02625 C10.74375,23.02625 10.03625,23.7325 10.03625,24.5975 C10.03625,25.46 10.74375,26.16875 11.6225,26.16875 C12.48625,26.16875 13.19375,25.46 13.19375,24.5975 Z M17.13625,7.6025 C17.13625,6.73875 16.43,6.03125 15.565,6.03125 C14.70125,6.03125 13.995,6.73875 13.995,7.6025 C13.995,8.465 14.70125,9.1725 15.565,9.1725 C16.43,9.1725 17.13625,8.465 17.13625,7.6025 Z" id="Fill-1" fill="#31B845" fill-rule="nonzero"></path>
    </g>
</svg>