<svg width="157" height="30" xmlns="http://www.w3.org/2000/svg"><g fill="#31B845" fill-rule="evenodd"><path d="M30 15c0 8.277-6.723 15-15 15-4.273 0-8.12-1.79-10.854-4.65l8.026-8.026c.11-.11.11-.298 0-.41l-.706-.704c-.11-.11-.298-.11-.41 0L3.11 24.14C1.163 21.613 0 18.44 0 15 0 6.706 6.706 0 15 0c8.277 0 15 6.706 15 15zm-20.593-.44l-4.192 4.194c-.095.093-.095.298 0 .407l.723.71c.11.11.297.11.407 0l4.195-4.195c.094-.11.094-.298 0-.408l-.722-.707c-.11-.11-.3-.11-.41 0zm8.923 2.2l2.48-2.466c.11-.11.11-.3 0-.41l-3.736-3.738c-.127-.14-.347-.187-.44-.187H6.8c-.266 0-.518.186-.643.296l-.896.88c-.14.14-.045.408.175.408h6.94l-2.102 2.105c-.11.11-.11.297 0 .407l2.387 2.388c.11.11.3.11.408 0l4.037-4.02 1.68 1.65-1.57 1.57c-.11.11-.11.298 0 .407l.706.707c.11.11.3.11.41 0zm-5.136 7.837c0-.864-.708-1.57-1.572-1.57-.878 0-1.586.706-1.586 1.57 0 .863.708 1.572 1.587 1.572.863 0 1.57-.71 1.57-1.573zm3.942-16.995c0-.863-.706-1.57-1.57-1.57-.865 0-1.57.707-1.57 1.57 0 .863.705 1.57 1.57 1.57.864 0 1.57-.707 1.57-1.57zM74.902 14.805c0 .072 0 .316-.02.39H71.14c.142-1.096.777-2 2.045-2 1.165 0 1.717.656 1.717 1.61zm-23.76-.135c0 2.04-1.41 3.59-3.496 3.59-2.045 0-3.517-1.55-3.517-3.59 0-2.06 1.47-3.613 3.516-3.613 2.085 0 3.497 1.552 3.497 3.613zm33.803-.756c.217 0 .42-.096.558-.263l1.376-1.656c.075-.093.09-.22.04-.332-.05-.108-.16-.176-.282-.176H83.9v-.873c0-.633.266-1.02.92-1.02.235 0 .848.08 1.32.223.156.048.325-.036.382-.19.1-.28.293-.806.635-1.746.057-.16-.024-.337-.184-.395C86.157 7.18 84.816 7 84.268 7c-2.495 0-3.6 1.714-3.6 3.652v.834h-1.363c-.173 0-.312.138-.312.31v1.808c0 .172.14.31.312.31h1.364v6.81c0 .172.138.31.31.31h2.61c.17 0 .31-.138.31-.31v-6.81h1.045zM56.422 11.2c-.17 0-.31.14-.31.31v9.216c0 .173.14.31.31.31h2.568c.173 0 .31-.137.31-.31V15.1c.308-.572.943-1.224 1.985-1.224 1.206 0 1.758.694 1.758 1.957v4.893c0 .173.14.31.31.31h2.57c.17 0 .31-.137.31-.31v-5.362c0-2.408-1.103-4.347-3.804-4.347-1.33 0-2.373.49-3.13 1.327v-.834c0-.17-.137-.31-.31-.31h-2.568zm21.24 3.838c0-2.268-1.45-4.104-4.456-4.104-3.19 0-5.277 2.225-5.277 5.185 0 2.916 1.698 5.12 5.44 5.12 1.394 0 2.86-.34 3.988-1.155.128-.095.167-.27.087-.408l-.867-1.502c-.04-.07-.11-.123-.19-.145-.08-.02-.166-.01-.237.034-.756.448-1.748.768-2.598.768-1.452 0-2.268-.715-2.454-1.858h6.11c.15 0 .278-.108.304-.256.097-.546.15-1.24.15-1.68zm19.733 1.08c0-2.98-2.248-5.183-5.378-5.183-3.068 0-5.337 2.204-5.337 5.184 0 2.957 2.27 5.12 5.337 5.12 3.13 0 5.378-2.162 5.378-5.12zM54.312 14.67c0-3.776-2.862-6.592-6.666-6.592-3.783 0-6.646 2.816-6.646 6.592 0 3.796 2.78 6.57 6.646 6.57 3.804 0 6.666-2.815 6.666-6.57zm40.057 1.45c0 1.305-.942 2.324-2.353 2.324-1.37 0-2.29-1.02-2.29-2.325 0-1.348.92-2.37 2.29-2.37 1.41 0 2.352 1.023 2.352 2.37zm15.048 0c0-2.98-2.27-5.185-5.378-5.185-3.088 0-5.336 2.204-5.336 5.184 0 2.957 2.248 5.12 5.336 5.12 3.108 0 5.378-2.162 5.378-5.12zm-3.047 0c0 1.305-.94 2.324-2.35 2.324-1.37 0-2.29-1.02-2.29-2.325 0-1.348.92-2.37 2.29-2.37 1.41 0 2.35 1.023 2.35 2.37zm8.712-2.49h3.125c.17 0 .31-.14.31-.31v-1.81c0-.17-.14-.31-.31-.31h-3.125V9c0-.17-.14-.31-.31-.31h-.205c-.182 0-.357.07-.49.19l-3.682 3.38c-.128.12-.2.284-.2.46v.6c0 .17.14.31.31.31h1.387v3.978c0 2.367 1.35 3.632 3.495 3.632 1.44 0 2.503-.374 3.316-.875.13-.08.183-.244.123-.384l-.716-1.703c-.035-.082-.103-.145-.19-.173-.083-.03-.175-.02-.253.025-.418.242-.884.376-1.38.376-.754 0-1.205-.428-1.205-1.55V13.63zm16.154 2.428c0-3.02-1.882-5.123-4.662-5.123-1.206 0-2.188.45-2.863 1.122v-4.24c0-.172-.14-.31-.31-.31h-.268c-.192 0-.376.077-.512.212l-1.837 1.83c-.194.194-.304.457-.304.732v10.443c0 .172.14.31.31.31h2.61c.17 0 .31-.137.31-.31v-.688c.634.693 1.554 1.203 2.864 1.203 2.78 0 4.662-2.184 4.662-5.182zm-3.252 0c0 1.468-.9 2.428-2.33 2.428-.777 0-1.534-.387-1.943-.755v-3.306c.47-.428 1.207-.775 1.943-.775 1.43 0 2.33.96 2.33 2.408zm14.97 4.977c.202 0 .367-.163.367-.367V11.51c0-.17-.14-.31-.31-.31h-2.568c-.173 0-.312.14-.312.31v.63c-.654-.654-1.615-1.123-2.822-1.123-2.72 0-4.58 2.123-4.58 5.08 0 2.982 1.82 5.143 4.58 5.143 1.267 0 2.21-.51 2.822-1.184v.67c0 .172.14.31.312.31h2.51zm-2.824-3.326c-.41.407-1.166.756-1.9.756-1.392 0-2.29-.96-2.29-2.409 0-1.428.898-2.367 2.29-2.367.694 0 1.43.326 1.9.776v3.243zm10.27 1.027c-.02-.086-.077-.158-.155-.2-.077-.042-.17-.048-.252-.018-.13.046-.25.067-.458.067-.49 0-.694-.306-.694-.878V7.815c0-.17-.138-.31-.31-.31h-.27c-.192 0-.375.076-.51.21l-1.792 1.773c-.197.192-.307.456-.307.732v8.203c0 2.06 1.167 2.814 2.802 2.814.712 0 1.58-.14 2.212-.502.12-.07.18-.21.147-.344-.056-.235-.175-.713-.41-1.656zm6.157.003c-.022-.085-.078-.157-.154-.2-.078-.04-.17-.047-.252-.017-.13.046-.256.066-.46.066-.49 0-.674-.308-.674-.88V7.817c0-.172-.14-.31-.312-.31h-.288c-.19 0-.376.077-.512.212l-1.774 1.77c-.195.192-.304.456-.304.73v8.205c0 2.06 1.145 2.815 2.78 2.815.703 0 1.59-.137 2.215-.5.12-.07.18-.21.148-.34-.058-.236-.177-.712-.41-1.66z"/></g></svg>