<svg width="100" height="30" viewBox="0 0 100 30" xmlns="http://www.w3.org/2000/svg"><title>C251AE57-0540-45DE-AFB4-9864F500EF10</title><defs><linearGradient x1="90.766%" y1="4.839%" x2="-38.329%" y2="71.969%" id="a"><stop stop-color="#00A0FF" offset="0%"/><stop stop-color="#00A1FF" offset=".657%"/><stop stop-color="#00BEFF" offset="26.01%"/><stop stop-color="#00D2FF" offset="51.22%"/><stop stop-color="#00DFFF" offset="76.04%"/><stop stop-color="#00E3FF" offset="100%"/></linearGradient><linearGradient x1="107.727%" y1="49.429%" x2="-130.666%" y2="49.429%" id="b"><stop stop-color="#FFE000" offset="0%"/><stop stop-color="#FFBD00" offset="40.87%"/><stop stop-color="#FFA500" offset="77.54%"/><stop stop-color="#FF9C00" offset="100%"/></linearGradient><linearGradient x1="86.389%" y1="17.816%" x2="-49.889%" y2="194.394%" id="c"><stop stop-color="#FF3A44" offset="0%"/><stop stop-color="#C31162" offset="100%"/></linearGradient><linearGradient x1="-18.58%" y1="-54.526%" x2="42.274%" y2="24.691%" id="d"><stop stop-color="#32A071" offset="0%"/><stop stop-color="#2DA771" offset="6.85%"/><stop stop-color="#15CF74" offset="47.62%"/><stop stop-color="#06E775" offset="80.09%"/><stop stop-color="#00F076" offset="100%"/></linearGradient></defs><g fill-rule="nonzero" fill="none"><path d="M96.297 29.63H3.704A3.668 3.668 0 0 1 0 25.926V3.704A3.668 3.668 0 0 1 3.704 0h92.593a3.668 3.668 0 0 1 3.704 3.704v22.222a3.668 3.668 0 0 1-3.704 3.704z" fill="#000"/><path d="M96.297.593a3.13 3.13 0 0 1 3.112 3.11v22.223a3.13 3.13 0 0 1-3.112 3.111H3.704a3.13 3.13 0 0 1-3.111-3.11V3.703A3.13 3.13 0 0 1 3.703.593h92.594zm0-.593H3.704C1.63 0 0 1.704 0 3.704v22.222a3.668 3.668 0 0 0 3.704 3.704h92.593a3.668 3.668 0 0 0 3.704-3.704V3.704c0-2-1.63-3.704-3.704-3.704z" fill="#A6A6A6"/><g stroke="#FFF" stroke-width=".2" fill="#FFF"><path d="M35.112 7.556c0 .592-.149 1.11-.519 1.481-.444.445-.963.667-1.63.667-.666 0-1.185-.222-1.63-.667-.444-.444-.666-.963-.666-1.63 0-.666.222-1.185.667-1.63.444-.444.963-.666 1.63-.666.296 0 .592.074.888.222.297.149.519.297.667.519l-.37.37c-.297-.37-.667-.518-1.186-.518-.444 0-.889.148-1.185.518-.37.297-.518.741-.518 1.26 0 .518.148.963.518 1.259.37.296.74.518 1.185.518.519 0 .89-.148 1.26-.518.222-.222.37-.519.37-.89h-1.63V7.26h2.149v.297zM38.519 5.704h-2V7.11h1.852v.519h-1.852v1.407h2v.593h-2.593V5.185h2.593zM40.963 9.63h-.592V5.704h-1.26v-.519h3.112v.519h-1.26zM44.37 9.63V5.185h.594V9.63zM47.482 9.63h-.593V5.704H45.63v-.519h3.037v.519h-1.259V9.63zM54.52 9.037c-.445.445-.964.667-1.63.667-.667 0-1.186-.222-1.63-.667-.445-.444-.667-.963-.667-1.63 0-.666.222-1.185.667-1.63.444-.444.963-.666 1.63-.666.666 0 1.185.222 1.63.667.444.444.666.963.666 1.63 0 .666-.222 1.185-.667 1.63zm-2.816-.37c.297.296.741.518 1.186.518.444 0 .888-.148 1.185-.518.296-.297.518-.741.518-1.26 0-.518-.148-.962-.518-1.259-.297-.296-.741-.518-1.185-.518-.445 0-.89.148-1.186.518-.296.297-.518.741-.518 1.26 0 .518.148.962.518 1.259zM56 9.63V5.185h.667l2.149 3.482V5.185h.592V9.63h-.592L56.519 6V9.63z"/></g><path d="M50.445 16.148c-1.778 0-3.185 1.334-3.185 3.186a3.162 3.162 0 0 0 3.185 3.185c1.778 0 3.185-1.334 3.185-3.185 0-1.926-1.407-3.186-3.185-3.186zm0 5.037c-.963 0-1.778-.814-1.778-1.926 0-1.11.815-1.925 1.778-1.925.963 0 1.778.74 1.778 1.925 0 1.112-.815 1.926-1.778 1.926zm-6.889-5.037c-1.778 0-3.185 1.334-3.185 3.186a3.162 3.162 0 0 0 3.185 3.185c1.778 0 3.185-1.334 3.185-3.185 0-1.926-1.407-3.186-3.185-3.186zm0 5.037c-.963 0-1.778-.814-1.778-1.926 0-1.11.815-1.925 1.778-1.925.963 0 1.778.74 1.778 1.925 0 1.112-.815 1.926-1.778 1.926zm-8.222-4.074v1.334h3.185c-.074.74-.37 1.333-.74 1.703-.445.445-1.186.963-2.445.963-2 0-3.482-1.555-3.482-3.555S33.408 14 35.334 14c1.037 0 1.852.445 2.444.963l.963-.963c-.815-.74-1.852-1.333-3.333-1.333-2.667 0-4.963 2.222-4.963 4.889 0 2.666 2.296 4.889 4.963 4.889 1.481 0 2.518-.445 3.407-1.408.89-.889 1.185-2.148 1.185-3.11 0-.297 0-.593-.074-.816h-4.592zm33.63 1.037c-.296-.74-1.037-2-2.667-2s-2.963 1.26-2.963 3.186c0 1.777 1.333 3.185 3.111 3.185 1.408 0 2.297-.89 2.593-1.408L68 20.371c-.37.518-.815.889-1.556.889-.74 0-1.185-.297-1.555-.963l4.222-1.778-.148-.37zm-4.297 1.037c0-1.185.963-1.851 1.63-1.851.519 0 1.037.296 1.185.666l-2.815 1.185zm-3.481 3.037h1.407v-9.259h-1.407v9.26zm-2.222-5.407c-.37-.37-.963-.74-1.704-.74-1.556 0-3.037 1.407-3.037 3.184 0 1.778 1.407 3.112 3.037 3.112.74 0 1.333-.37 1.63-.741h.074v.444c0 1.186-.667 1.852-1.704 1.852-.815 0-1.407-.592-1.556-1.11l-1.185.518c.37.814 1.26 1.851 2.815 1.851 1.63 0 2.963-.962 2.963-3.259v-5.63h-1.333v.519zm-1.63 4.37c-.963 0-1.778-.814-1.778-1.926 0-1.11.815-1.925 1.778-1.925.963 0 1.704.814 1.704 1.925 0 1.112-.741 1.926-1.704 1.926zm18.074-8.222h-3.333v9.26h1.407V18.74h1.926c1.556 0 3.037-1.111 3.037-2.889 0-1.778-1.481-2.889-3.037-2.889zm.074 4.445h-2v-3.186h2c1.037 0 1.63.89 1.63 1.556-.074.815-.667 1.63-1.63 1.63zm8.519-1.334c-1.037 0-2.074.445-2.444 1.408l1.259.518c.296-.518.74-.666 1.26-.666.74 0 1.407.444 1.48 1.185v.074c-.222-.148-.814-.37-1.407-.37-1.333 0-2.667.74-2.667 2.074 0 1.259 1.112 2.074 2.297 2.074.963 0 1.407-.445 1.778-.89h.074v.741h1.333v-3.555c-.148-1.63-1.407-2.593-2.963-2.593zm-.148 5.111c-.445 0-1.111-.222-1.111-.814 0-.741.815-.963 1.481-.963.593 0 .89.148 1.26.296-.149.889-.89 1.481-1.63 1.481zm7.778-4.889l-1.556 4h-.074l-1.63-4H86.89l2.444 5.63-1.407 3.111h1.407l3.778-8.74h-1.481zm-12.445 5.926h1.408v-9.259h-1.408v9.26z" fill="#FFF"/><path d="M.296.37C.074.593 0 .963 0 1.407v16.371c0 .444.148.815.37 1.037l.074.074L9.63 9.704v-.148L.296.37z" fill="url(#a)" transform="translate(7.407 5.185)"/><path d="M12.593 12.815L9.556 9.778V9.556l3.037-3.037.074.074 3.63 2.074c1.037.592 1.037 1.555 0 2.148l-3.704 2z" fill="url(#b)" transform="translate(7.407 5.185)"/><path d="M12.667 12.74L9.556 9.63l-9.26 9.26c.37.37.89.37 1.556.073l10.815-6.222" fill="url(#c)" transform="translate(7.407 5.185)"/><path d="M12.667 6.519L1.852.37C1.185 0 .667.074.296.444l9.26 9.186 3.11-3.111z" fill="url(#d)" transform="translate(7.407 5.185)"/><g fill="#000"><path d="M20 17.852L9.26 23.926c-.593.37-1.112.297-1.482 0L7.704 24l.074.074c.37.297.889.37 1.481 0L20 17.852z" opacity=".2"/><path d="M7.704 23.926c-.222-.222-.297-.592-.297-1.037v.074c0 .445.149.815.37 1.037v-.074h-.073z" opacity=".12"/></g><path d="M23.704 15.778L20 17.852l.074.074 3.63-2.074c.519-.296.74-.667.74-1.037 0 .37-.296.667-.74.963z" fill="#000" opacity=".12"/><path d="M9.26 5.63l14.444 8.222c.444.296.74.593.74.963 0-.37-.221-.74-.74-1.037L9.259 5.556c-1.037-.593-1.851-.149-1.851 1.037v.074c0-1.111.814-1.63 1.851-1.037z" fill="#FFF" opacity=".25"/></g></svg>