<svg xmlns="http://www.w3.org/2000/svg" width="24" height="24" viewBox="0 0 24 24">
        <path d="M18.8647853,3.79000854 C19.0991615,3.79000854 19.3000524,3.87371307 19.4674639,4.04112462 C19.6348755,4.20853617 19.71858,4.40942702 19.71858,4.64380319 L19.71858,18.3647853 C19.71858,18.5991615 19.6348755,18.8000524 19.4674639,18.9674639 C19.3000524,19.1348755 19.0991615,19.21858 18.8647853,19.21858 L14.93733,19.21858 L14.93733,13.2420175 L16.9362139,13.2420175 L17.2375532,10.9116603 L14.93733,10.9116603 L14.93733,9.42505319 C14.93733,9.05005131 15.0160122,8.76880413 15.1733791,8.58130319 C15.3307459,8.39380225 15.6371045,8.30005319 16.0924639,8.30005319 L17.3179103,8.29000854 L17.3179103,6.21076747 C16.8960332,6.15049932 16.300057,6.12036569 15.5299639,6.12036569 C14.6192451,6.12036569 13.8910157,6.38822015 13.3452541,6.92393712 C12.7994924,7.45965408 12.5266157,8.21634294 12.5266157,9.1940264 L12.5266157,10.9116603 L10.5176871,10.9116603 L10.5176871,13.2420175 L12.5266157,13.2420175 L12.5266157,19.21858 L5.14380319,19.21858 C4.90942702,19.21858 4.70853617,19.1348755 4.54112462,18.9674639 C4.37371307,18.8000524 4.29000854,18.5991615 4.29000854,18.3647853 L4.29000854,4.64380319 C4.29000854,4.40942702 4.37371307,4.20853617 4.54112462,4.04112462 C4.70853617,3.87371307 4.90942702,3.79000854 5.14380319,3.79000854 L18.8647853,3.79000854 Z"></path>
</svg>