<?xml version="1.0" encoding="UTF-8"?>
<svg width="16px" height="17px" viewBox="0 0 16 17" version="1.1" xmlns="http://www.w3.org/2000/svg" xmlns:xlink="http://www.w3.org/1999/xlink">
    <!-- Generator: Sketch 48.2 (47327) - http://www.bohemiancoding.com/sketch -->
    <title>ic_instagram</title>
    <desc>Created with Sketch.</desc>
    <defs></defs>
    <g id="Page-1" stroke="none" stroke-width="1" fill="none" fill-rule="evenodd">
        <g id="ic_instagram" transform="translate(-4.000000, -3.000000)">
            <rect id="bound-copy-4" x="0" y="0" width="24" height="24"></rect>
            <path d="M13.8180804,13.3123649 C14.320315,12.8101302 14.5714286,12.2041095 14.5714286,11.4942845 C14.5714286,10.7844595 14.320315,10.1784388 13.8180804,9.67620414 C13.3158457,9.17396948 12.709825,8.92285592 12,8.92285592 C11.290175,8.92285592 10.6841543,9.17396948 10.1819196,9.67620414 C9.67968499,10.1784388 9.42857143,10.7844595 9.42857143,11.4942845 C9.42857143,12.2041095 9.67968499,12.8101302 10.1819196,13.3123649 C10.6841543,13.8145995 11.290175,14.0657131 12,14.0657131 C12.709825,14.0657131 13.3158457,13.8145995 13.8180804,13.3123649 Z M14.8024554,8.69182914 C15.5725485,9.46192227 15.9575893,10.3960647 15.9575893,11.4942845 C15.9575893,12.5925043 15.5725485,13.5266467 14.8024554,14.2967399 C14.0323622,15.066833 13.0982198,15.4518738 12,15.4518738 C10.9017802,15.4518738 9.96763778,15.066833 9.19754464,14.2967399 C8.42745151,13.5266467 8.04241071,12.5925043 8.04241071,11.4942845 C8.04241071,10.3960647 8.42745151,9.46192227 9.19754464,8.69182914 C9.96763778,7.921736 10.9017802,7.53669521 12,7.53669521 C13.0982198,7.53669521 14.0323622,7.921736 14.8024554,8.69182914 Z M16.7712054,6.72307914 C16.9520098,6.90388361 17.0424107,7.12151536 17.0424107,7.37598092 C17.0424107,7.63044648 16.9520098,7.84807823 16.7712054,8.02888271 C16.5904009,8.20968718 16.3727691,8.30008807 16.1183036,8.30008807 C15.863838,8.30008807 15.6462063,8.20968718 15.4654018,8.02888271 C15.2845973,7.84807823 15.1941964,7.63044648 15.1941964,7.37598092 C15.1941964,7.12151536 15.2845973,6.90388361 15.4654018,6.72307914 C15.6462063,6.54227466 15.863838,6.45187378 16.1183036,6.45187378 C16.3727691,6.45187378 16.5904009,6.54227466 16.7712054,6.72307914 Z M12.7633929,5.16615949 L12,5.16615949 C11.9531248,5.16615949 11.6969889,5.1644854 11.2315848,5.16113717 C10.7661807,5.15778894 10.4129476,5.15778894 10.171875,5.16113717 C9.93080237,5.1644854 9.60770292,5.17452995 9.20256696,5.1912711 C8.79743101,5.20801226 8.45256839,5.24149406 8.16796875,5.29171753 C7.88336911,5.34194099 7.64397419,5.40388234 7.44977679,5.47754342 C7.11495368,5.61147266 6.82031377,5.80566715 6.56584821,6.06013271 C6.31138266,6.31459827 6.11718817,6.60923818 5.98325893,6.94406128 C5.90959785,7.13825868 5.8476565,7.37765361 5.79743304,7.66225324 C5.74720957,7.94685288 5.71372776,8.2917155 5.69698661,8.69685146 C5.68024545,9.10198741 5.67020091,9.42508686 5.66685268,9.66615949 C5.66350445,9.90723213 5.66350445,10.2604652 5.66685268,10.7258693 C5.67020091,11.1912734 5.671875,11.4474093 5.671875,11.4942845 C5.671875,11.5411597 5.67020091,11.7972956 5.66685268,12.2626997 C5.66350445,12.7281038 5.66350445,13.0813369 5.66685268,13.3224095 C5.67020091,13.5634821 5.68024545,13.8865816 5.69698661,14.2917175 C5.71372776,14.6968535 5.74720957,15.0417161 5.79743304,15.3263157 C5.8476565,15.6109154 5.90959785,15.8503103 5.98325893,16.0445077 C6.11718817,16.3793308 6.31138266,16.6739707 6.56584821,16.9284363 C6.82031377,17.1829018 7.11495368,17.3770963 7.44977679,17.5110256 C7.64397419,17.5846866 7.88336911,17.646628 8.16796875,17.6968515 C8.45256839,17.7470749 8.79743101,17.7805567 9.20256696,17.7972979 C9.60770292,17.814039 9.93080237,17.8240836 10.171875,17.8274318 C10.4129476,17.83078 10.7661807,17.83078 11.2315848,17.8274318 C11.6969889,17.8240836 11.9531248,17.8224095 12,17.8224095 C12.0468752,17.8224095 12.3030111,17.8240836 12.7684152,17.8274318 C13.2338193,17.83078 13.5870524,17.83078 13.828125,17.8274318 C14.0691976,17.8240836 14.3922971,17.814039 14.797433,17.7972979 C15.202569,17.7805567 15.5474316,17.7470749 15.8320312,17.6968515 C16.1166309,17.646628 16.3560258,17.5846866 16.5502232,17.5110256 C16.8850463,17.3770963 17.1796862,17.1829018 17.4341518,16.9284363 C17.6886173,16.6739707 17.8828118,16.3793308 18.0167411,16.0445077 C18.0904022,15.8503103 18.1523435,15.6109154 18.202567,15.3263157 C18.2527904,15.0417161 18.2862722,14.6968535 18.3030134,14.2917175 C18.3197545,13.8865816 18.3297991,13.5634821 18.3331473,13.3224095 C18.3364956,13.0813369 18.3364956,12.7281038 18.3331473,12.2626997 C18.3297991,11.7972956 18.328125,11.5411597 18.328125,11.4942845 C18.328125,11.4474093 18.3297991,11.1912734 18.3331473,10.7258693 C18.3364956,10.2604652 18.3364956,9.90723213 18.3331473,9.66615949 C18.3297991,9.42508686 18.3197545,9.10198741 18.3030134,8.69685146 C18.2862722,8.2917155 18.2527904,7.94685288 18.202567,7.66225324 C18.1523435,7.37765361 18.0904022,7.13825868 18.0167411,6.94406128 C17.8828118,6.60923818 17.6886173,6.31459827 17.4341518,6.06013271 C17.1796862,5.80566715 16.8850463,5.61147266 16.5502232,5.47754342 C16.3560258,5.40388234 16.1166309,5.34194099 15.8320312,5.29171753 C15.5474316,5.24149406 15.202569,5.20801226 14.797433,5.1912711 C14.3922971,5.17452995 14.0691976,5.1644854 13.828125,5.16113717 C13.5870524,5.15778894 13.2321452,5.15946303 12.7633929,5.16615949 Z M19.6640625,8.31013271 C19.6975448,8.89942137 19.7142857,9.96079468 19.7142857,11.4942845 C19.7142857,13.0277743 19.6975448,14.0891476 19.6640625,14.6784363 C19.5970979,16.0713004 19.1819235,17.1494146 18.4185268,17.9128113 C17.6551301,18.676208 16.5770159,19.0913824 15.1841518,19.158347 C14.5948631,19.1918293 13.5334898,19.2085702 12,19.2085702 C10.4665102,19.2085702 9.40513688,19.1918293 8.81584821,19.158347 C7.42298411,19.0913824 6.34486989,18.676208 5.58147321,17.9128113 C4.81807654,17.1494146 4.40290212,16.0713004 4.3359375,14.6784363 C4.30245519,14.0891476 4.28571429,13.0277743 4.28571429,11.4942845 C4.28571429,9.96079468 4.30245519,8.89942137 4.3359375,8.31013271 C4.40290212,6.9172686 4.81807654,5.83915438 5.58147321,5.07575771 C6.34486989,4.31236103 7.42298411,3.89718661 8.81584821,3.83022199 C9.40513688,3.79673968 10.4665102,3.77999878 12,3.77999878 C13.5334898,3.77999878 14.5948631,3.79673968 15.1841518,3.83022199 C16.5770159,3.89718661 17.6551301,4.31236103 18.4185268,5.07575771 C19.1819235,5.83915438 19.5970979,6.9172686 19.6640625,8.31013271 Z" id="" fill="#323C46"></path>
        </g>
    </g>
</svg>