<?xml version="1.0" encoding="UTF-8"?>
<svg width="18px" height="17px" viewBox="0 0 18 17" version="1.1" xmlns="http://www.w3.org/2000/svg" xmlns:xlink="http://www.w3.org/1999/xlink">
    <!-- Generator: Sketch 48.2 (47327) - http://www.bohemiancoding.com/sketch -->
    <title>ic_snapchat</title>
    <desc>Created with Sketch.</desc>
    <defs></defs>
    <g id="Page-1" stroke="none" stroke-width="1" fill="none" fill-rule="evenodd">
        <g id="ic_snapchat" transform="translate(-3.000000, -3.000000)">
            <rect id="bound-copy-5" x="0" y="0" width="24" height="24"></rect>
            <path d="M12.1607143,3.78014126 C13.0580402,3.7734448 13.8632777,4.00279518 14.5764509,4.46819929 C15.2896241,4.93360341 15.8370517,5.57812821 16.21875,6.40179304 C16.3995545,6.79018784 16.4899554,7.38951221 16.4899554,8.19978412 C16.4899554,8.51451783 16.4598217,9.15402037 16.3995536,10.1183109 C16.493304,10.1651861 16.5870531,10.1886234 16.6808036,10.1886234 C16.8013399,10.1886234 16.9720971,10.143423 17.1930804,10.0530207 C17.4140636,9.96261849 17.5848208,9.91741804 17.7053571,9.91741804 C17.8995545,9.91741804 18.0870527,9.9776853 18.2678571,10.0982216 C18.4486616,10.2187579 18.5390625,10.3727743 18.5390625,10.5602752 C18.5390625,10.774562 18.4335948,10.9553637 18.2226562,11.1026859 C18.0117177,11.2500081 17.7806932,11.3554758 17.5295759,11.4190922 C17.2784586,11.4827085 17.0474341,11.5798058 16.8364955,11.7103868 C16.625557,11.8409678 16.5200893,12.0000064 16.5200893,12.1875073 C16.5200893,12.2879543 16.5602675,12.431926 16.640625,12.619427 C16.8883941,13.1685369 17.2315826,13.670764 17.6702009,14.1261234 C18.1088192,14.5814828 18.5926313,14.9196491 19.1216518,15.1406323 C19.3091527,15.2209899 19.5770072,15.297998 19.9252232,15.3716591 C20.1127242,15.4118379 20.2064732,15.5290242 20.2064732,15.7232216 C20.2064732,16.191974 19.4732216,16.5368366 18.0066964,16.7578198 C17.9598212,16.8314809 17.9229912,16.96206 17.8962054,17.1495609 C17.8694195,17.3370618 17.822545,17.4927522 17.7555804,17.6166368 C17.6886157,17.7405213 17.5781258,17.8024627 17.4241071,17.8024627 C17.2901779,17.8024627 17.0825907,17.7806995 16.8013393,17.7371725 C16.5200879,17.6936455 16.3058043,17.6718823 16.1584821,17.6718823 C15.910713,17.6718823 15.7031258,17.6886232 15.5357143,17.7221055 C15.3214275,17.7555879 15.1104921,17.8309219 14.9029018,17.94811 C14.6953115,18.0652981 14.501117,18.192529 14.3203125,18.3298064 C14.139508,18.4670839 13.9453135,18.6026852 13.7377232,18.7366145 C13.5301329,18.8705437 13.2756711,18.9827078 12.9743304,19.07311 C12.6729896,19.1635122 12.3415197,19.2087127 11.9799107,19.2087127 C11.6316947,19.2087127 11.3085952,19.1635122 11.0106027,19.07311 C10.7126101,18.9827078 10.4614966,18.8705437 10.2572545,18.7366145 C10.0530124,18.6026852 9.86049198,18.4670839 9.6796875,18.3298064 C9.49888302,18.192529 9.30468854,18.0652981 9.09709821,17.94811 C8.88950789,17.8309219 8.68192068,17.7555879 8.47433036,17.7221055 C8.30022234,17.6886232 8.08928695,17.6718823 7.84151786,17.6718823 C7.68080277,17.6718823 7.46149693,17.6969937 7.18359375,17.7472172 C6.90569057,17.7974406 6.709822,17.822552 6.59598214,17.822552 C6.42857059,17.822552 6.31138426,17.7606106 6.24441964,17.6367261 C6.17745502,17.5128415 6.13058049,17.3538029 6.10379464,17.1596055 C6.07700879,16.9654081 6.04017881,16.8314809 5.99330357,16.7578198 C4.52677838,16.5368366 3.79352679,16.191974 3.79352679,15.7232216 C3.79352679,15.5290242 3.88727585,15.4118379 4.07477679,15.3716591 C4.42299281,15.297998 4.69084728,15.2209899 4.87834821,15.1406323 C5.40067225,14.9263455 5.88448438,14.5881793 6.32979911,14.1261234 C6.77511383,13.6640675 7.11830237,13.1618404 7.359375,12.619427 C7.43973254,12.431926 7.47991071,12.2879543 7.47991071,12.1875073 C7.47991071,12.0000064 7.37444302,11.8409678 7.16350446,11.7103868 C6.95256591,11.5798058 6.71986734,11.4810345 6.46540179,11.4140698 C6.21093623,11.3471052 5.97823766,11.2416375 5.76729911,11.0976636 C5.55636055,10.9536896 5.45089286,10.7779102 5.45089286,10.5703198 C5.45089286,10.3895154 5.53794556,10.2371731 5.71205357,10.1132886 C5.88616158,9.98940403 6.07031153,9.92746269 6.26450893,9.92746269 C6.36495586,9.92746269 6.52566854,9.97098904 6.74665179,10.058043 C6.96763503,10.1450971 7.14508862,10.1886234 7.27901786,10.1886234 C7.39955417,10.1886234 7.50669596,10.1651861 7.60044643,10.1183109 C7.54017827,9.16741329 7.51004464,8.53125894 7.51004464,8.20982876 C7.51004464,7.39286039 7.60044552,6.79018784 7.78125,6.40179304 C8.20982357,5.48437774 8.78571067,4.82143794 9.50892857,4.41295376 C10.2321465,4.00446957 11.1160662,3.79353418 12.1607143,3.78014126 Z" id="" fill="#323C46"></path>
        </g>
    </g>
</svg>