<?xml version="1.0" encoding="UTF-8"?>
<svg width="16px" height="14px" viewBox="0 0 16 14" version="1.1" xmlns="http://www.w3.org/2000/svg" xmlns:xlink="http://www.w3.org/1999/xlink">
    <!-- Generator: Sketch 48.2 (47327) - http://www.bohemiancoding.com/sketch -->
    <title>ic_twitter</title>
    <desc>Created with Sketch.</desc>
    <defs></defs>
    <g id="Page-1" stroke="none" stroke-width="1" fill="none" fill-rule="evenodd">
        <g id="ic_twitter" transform="translate(-4.000000, -5.000000)">
            <rect id="bound-copy" x="0" y="0" width="24" height="24"></rect>
            <path d="M19.9151786,7.09679304 C19.4665156,7.75304632 18.9241103,8.31219251 18.2879464,8.7742484 C18.2946429,8.86799886 18.2979911,9.00862246 18.2979911,9.1961234 C18.2979911,10.0666635 18.1707602,10.9355164 17.9162946,11.8027082 C17.6618291,12.6699001 17.2751142,13.501923 16.7561384,14.298802 C16.2371626,15.095681 15.6194232,15.800473 14.9029018,16.4131993 C14.1863803,17.0259256 13.3225497,17.51476 12.3113839,17.8797171 C11.3002182,18.2446743 10.2187558,18.4271502 9.06696429,18.4271502 C7.25222307,18.4271502 5.59152539,17.941664 4.08482143,16.970677 C4.3191976,16.9974628 4.5803557,17.0108555 4.86830357,17.0108555 C6.37500753,17.0108555 7.71762804,16.5488066 8.89620536,15.6246948 C8.19307684,15.6113019 7.56361885,15.3953442 7.0078125,14.9768154 C6.45200615,14.5582865 6.07031354,14.0242516 5.86272321,13.3746948 C6.08370646,13.4081771 6.28794549,13.424918 6.47544643,13.424918 C6.7633943,13.424918 7.04798967,13.388088 7.32924107,13.314427 C6.57923732,13.1604083 5.95814978,12.7870862 5.46595982,12.1944493 C4.97376986,11.6018124 4.72767857,10.9137612 4.72767857,10.1302752 L4.72767857,10.0900966 C5.18303799,10.3445622 5.67187239,10.4818376 6.19419643,10.501927 C5.75222993,10.2072826 5.40067095,9.82224184 5.13950893,9.34679304 C4.87834691,8.87134423 4.74776786,8.35572439 4.74776786,7.79991804 C4.74776786,7.21062938 4.89508781,6.66487591 5.18973214,6.16264125 C6.00000405,7.1604141 6.9860433,7.95895522 8.14787946,8.55828857 C9.30971563,9.15762193 10.5535648,9.49076592 11.8794643,9.55773054 C11.8258926,9.30326498 11.7991071,9.0554996 11.7991071,8.81442697 C11.7991071,7.91710105 12.1155102,7.15204174 12.7483259,6.51922607 C13.3811416,5.88641041 14.1462009,5.57000732 15.0435268,5.57000732 C15.9810315,5.57000732 16.7712021,5.91152177 17.4140625,6.5945609 C18.1439769,6.45393519 18.8303539,6.19277709 19.4732143,5.81107875 C19.2254452,6.58117189 18.7500035,7.17714807 18.046875,7.59902518 C18.669646,7.53206056 19.2924076,7.36465152 19.9151786,7.09679304 Z" id="" fill="#323C46"></path>
        </g>
    </g>
</svg>