<?xml version="1.0" encoding="UTF-8"?>
<svg width="16px" height="17px" viewBox="0 0 16 17" version="1.1" xmlns="http://www.w3.org/2000/svg" xmlns:xlink="http://www.w3.org/1999/xlink">
    <!-- Generator: Sketch 48.2 (47327) - http://www.bohemiancoding.com/sketch -->
    <title>ic_whatsapp</title>
    <desc>Created with Sketch.</desc>
    <defs></defs>
    <g id="Page-1" stroke="none" stroke-width="1" fill="none" fill-rule="evenodd">
        <g id="ic_whatsapp" transform="translate(-4.000000, -3.000000)">
            <rect id="bound-copy-3" x="0" y="0" width="24" height="24"></rect>
            <path d="M13.6573661,12.7702244 C13.9185281,12.4420978 14.0926335,12.2780369 14.1796875,12.2780369 C14.2667415,12.2780369 14.5931891,12.4253569 15.1590402,12.7200012 C15.7248912,13.0146456 16.0245534,13.1920991 16.0580357,13.2523673 C16.0714286,13.2858496 16.078125,13.3360723 16.078125,13.4030369 C16.078125,13.6240202 16.0212059,13.8784819 15.9073661,14.1664298 C15.8002227,14.4275918 15.5625018,14.6468977 15.1941964,14.8243539 C14.825891,15.0018101 14.4843766,15.0905369 14.1696429,15.0905369 C13.7879445,15.0905369 13.1517902,14.8829497 12.2611607,14.4677691 C11.6049074,14.1664283 11.0357167,13.771343 10.5535714,13.2825012 C10.0714262,12.7936595 9.5758954,12.174246 9.06696429,11.4242423 C8.58481902,10.7077209 8.34709818,10.0581738 8.35379464,9.47558158 L8.35379464,9.39522443 C8.37388403,8.78584639 8.62164941,8.25683382 9.09709821,7.80817086 C9.2578133,7.6608487 9.43191871,7.58718872 9.61941964,7.58718872 C9.65959842,7.58718872 9.71986567,7.59221099 9.80022321,7.60225568 C9.88058076,7.61230038 9.94419619,7.61732265 9.99107143,7.61732265 C10.1183042,7.61732265 10.207031,7.63908582 10.2572545,7.68261283 C10.3074779,7.72613983 10.3593747,7.8182148 10.4129464,7.95884051 C10.4665181,8.09276975 10.5770081,8.38740966 10.7444196,8.84276908 C10.9118312,9.2981285 10.9955357,9.54924206 10.9955357,9.59611729 C10.9955357,9.736743 10.8800235,9.92926339 10.6489955,10.1736843 C10.4179676,10.4181051 10.3024554,10.5737955 10.3024554,10.6407601 C10.3024554,10.6876354 10.3191963,10.7378581 10.3526786,10.7914298 C10.5803583,11.2802715 10.9218727,11.7389723 11.3772321,12.1675459 C11.752234,12.5224584 12.2578093,12.8606246 12.8939732,13.1820548 C12.9743308,13.22893 13.0479907,13.2523673 13.1149554,13.2523673 C13.2154023,13.2523673 13.3962041,13.0916546 13.6573661,12.7702244 Z M12.140625,17.6016976 C12.9910757,17.6016976 13.8063577,17.4342886 14.5864955,17.0994655 C15.3666334,16.7646424 16.0379436,16.3159862 16.6004464,15.7534834 C17.1629492,15.1909806 17.6116055,14.5196703 17.9464286,13.7395325 C18.2812517,12.9593946 18.4486607,12.1441126 18.4486607,11.2936619 C18.4486607,10.4432113 18.2812517,9.62792923 17.9464286,8.8477914 C17.6116055,8.06765357 17.1629492,7.39634332 16.6004464,6.83384051 C16.0379436,6.27133769 15.3666334,5.82268147 14.5864955,5.48785836 C13.8063577,5.15303526 12.9910757,4.98562622 12.140625,4.98562622 C11.2901743,4.98562622 10.4748923,5.15303526 9.69475446,5.48785836 C8.91461664,5.82268147 8.24330638,6.27133769 7.68080357,6.83384051 C7.11830076,7.39634332 6.66964453,8.06765357 6.33482143,8.8477914 C5.99999833,9.62792923 5.83258929,10.4432113 5.83258929,11.2936619 C5.83258929,12.6530437 6.23437098,13.8851743 7.03794643,14.9900905 L6.24441964,17.3304923 L8.67522321,16.5570548 C9.73326422,17.2534868 10.8883866,17.6016976 12.140625,17.6016976 Z M9.19754464,4.32267979 C10.1350493,3.92089207 11.1160663,3.72000122 12.140625,3.72000122 C13.1651837,3.72000122 14.1445266,3.92089207 15.078683,4.32267979 C16.0128395,4.72446752 16.818077,5.26352462 17.4944196,5.93986729 C18.1707623,6.61620996 18.7098194,7.42144744 19.1116071,8.3556039 C19.5133949,9.28976036 19.7142857,10.2691032 19.7142857,11.2936619 C19.7142857,12.3182206 19.5133949,13.2975635 19.1116071,14.23172 C18.7098194,15.1658764 18.1707623,15.9711139 17.4944196,16.6474566 C16.818077,17.3237992 16.0128395,17.8628564 15.078683,18.2646441 C14.1445266,18.6664318 13.1651837,18.8673226 12.140625,18.8673226 C10.8348149,18.8673226 9.61272891,18.5525937 8.47433036,17.9231262 L4.28571429,19.2691084 L5.65178571,15.201028 C4.92856781,14.0090578 4.56696429,12.7066154 4.56696429,11.2936619 C4.56696429,10.2691032 4.76785513,9.28976036 5.16964286,8.3556039 C5.57143058,7.42144744 6.11048769,6.61620996 6.78683036,5.93986729 C7.46317302,5.26352462 8.26673642,4.72446752 9.19754464,4.32267979 Z" id="" fill="#323C46"></path>
        </g>
    </g>
</svg>