<?xml version="1.0" encoding="UTF-8"?>
<svg width="18px" height="14px" viewBox="0 0 18 14" version="1.1" xmlns="http://www.w3.org/2000/svg" xmlns:xlink="http://www.w3.org/1999/xlink">
    <!-- Generator: Sketch 48.2 (47327) - http://www.bohemiancoding.com/sketch -->
    <title>ic_youtube</title>
    <desc>Created with Sketch.</desc>
    <defs></defs>
    <g id="Page-1" stroke="none" stroke-width="1" fill="none" fill-rule="evenodd">
        <g id="ic_youtube" transform="translate(-3.000000, -5.000000)">
            <rect id="bound-copy-2" x="0" y="0" width="24" height="24"></rect>
            <path d="M10.1417411,14.3284956 L15.0033482,11.8173349 L10.1417411,9.27604021 L10.1417411,14.3284956 Z M12,5.67001343 C13.1250056,5.67001343 14.2114903,5.68508024 15.2594866,5.71521432 C16.3074829,5.7453484 17.0758904,5.77715612 17.5647321,5.81063843 L18.2979911,5.850817 C18.3046875,5.850817 18.3616066,5.85583927 18.46875,5.86588396 C18.5758934,5.87592866 18.6529016,5.8859732 18.6997768,5.89601789 C18.746652,5.90606259 18.8253343,5.9211294 18.9358259,5.94121878 C19.0463175,5.96130817 19.1417407,5.98809362 19.2220982,6.02157593 C19.3024558,6.05505824 19.3962048,6.09858459 19.5033482,6.15215628 C19.6104916,6.20572798 19.7142852,6.27101751 19.8147321,6.34802682 C19.9151791,6.42503613 20.0122763,6.51376293 20.1060268,6.61420986 C20.1462056,6.65438863 20.1981024,6.71632997 20.2617187,6.80003575 C20.3253351,6.88374152 20.4224324,7.0796101 20.5530134,7.38764736 C20.6835944,7.69568461 20.7723212,8.03385087 20.8191964,8.40215628 C20.8727681,8.83072986 20.9146204,9.28775654 20.9447545,9.77325003 C20.9748885,10.2587435 20.9933035,10.6387621 21,10.913317 L21,12.6811741 C21.0066965,13.6521611 20.9464292,14.6231336 20.8191964,15.5941206 C20.7723212,15.962426 20.6886167,16.29557 20.5680804,16.5935625 C20.447544,16.8915551 20.3404023,17.0974682 20.2466518,17.2113081 L20.1060268,17.382067 C20.0122763,17.4825139 19.9151791,17.5712407 19.8147321,17.64825 C19.7142852,17.7252593 19.6104916,17.7888748 19.5033482,17.8390982 C19.3962048,17.8893217 19.3024558,17.931174 19.2220982,17.9646563 C19.1417407,17.9981386 19.0463175,18.024924 18.9358259,18.0450134 C18.8253343,18.0651028 18.7449779,18.0801696 18.6947545,18.0902143 C18.644531,18.100259 18.5675228,18.1103036 18.4637277,18.1203482 C18.3599325,18.1303929 18.3046875,18.1354152 18.2979911,18.1354152 C16.6171791,18.262648 14.5178697,18.3262634 12,18.3262634 C10.6138324,18.3128705 9.41016136,18.2911073 8.38895089,18.2609732 C7.36774043,18.2308392 6.69643018,18.2057278 6.375,18.1856384 L5.8828125,18.1454599 L5.52120536,18.1052813 C5.28013272,18.071799 5.09765687,18.0383172 4.97377232,18.0048349 C4.84988777,17.9713525 4.67913055,17.9010407 4.46149554,17.7938974 C4.24386052,17.686754 4.0546883,17.5494786 3.89397321,17.382067 C3.85379444,17.3418882 3.80189764,17.2799469 3.73828125,17.1962411 C3.67466486,17.1125353 3.57756762,16.9166668 3.44698661,16.6086295 C3.3164056,16.3005922 3.22767881,15.962426 3.18080357,15.5941206 C3.12723188,15.165547 3.08537961,14.7085203 3.05524554,14.2230268 C3.02511146,13.7375333 3.00669646,13.3575148 3,13.0829599 L3,11.3151027 C2.99330354,10.3441157 3.05357079,9.37314328 3.18080357,8.40215628 C3.22767881,8.03385087 3.31138333,7.70070688 3.43191964,7.40271432 C3.55245596,7.10472176 3.65959775,6.89880864 3.75334821,6.78496878 L3.89397321,6.61420986 C3.98772368,6.51376293 4.08482093,6.42503613 4.18526786,6.34802682 C4.28571479,6.27101751 4.38950839,6.20572798 4.49665179,6.15215628 C4.60379518,6.09858459 4.69754424,6.05505824 4.77790179,6.02157593 C4.85825933,5.98809362 4.95368248,5.96130817 5.06417411,5.94121878 C5.17466573,5.9211294 5.25334798,5.90606259 5.30022321,5.89601789 C5.34709845,5.8859732 5.42410661,5.87592866 5.53125,5.86588396 C5.63839339,5.85583927 5.69531247,5.850817 5.70200893,5.850817 C7.3828209,5.73028068 9.48213027,5.67001343 12,5.67001343 Z" id="" fill="#323C46"></path>
        </g>
    </g>
</svg>