<svg width="84" height="30" viewBox="0 0 84 30" xmlns="http://www.w3.org/2000/svg"><title>E202688E-E9CC-4771-B23E-78BEF7871289</title><g fill-rule="nonzero" fill="none"><path fill="#000" d="M.221.221h82.644v29.567H.221z"/><path d="M.433.433h82.211v29.134H.433V.433zM0 30h83.077V0H0v30z" fill="#D2D2D2"/><g><path fill="#F25022" d="M6.779 6.596h8.058v8.058H6.779z"/><path fill="#7FBA00" d="M15.673 6.596h8.058v8.058h-8.058z"/><path fill="#00A4EF" d="M6.779 15.48h8.058v8.059H6.779z"/><path fill="#FFB900" d="M15.673 15.48h8.058v8.059h-8.058z"/><path d="M39.26 15.673a.78.78 0 0 1 .26-.596.856.856 0 0 1 .615-.24c.25 0 .461.086.625.25.163.163.25.365.25.586a.76.76 0 0 1-.26.587.863.863 0 0 1-.625.24.863.863 0 0 1-.625-.24.83.83 0 0 1-.24-.587zm1.586 7.865h-1.433v-6.105h1.433v6.105zM45.212 22.49c.211 0 .451-.048.711-.144.26-.096.49-.23.712-.394v1.336c-.231.135-.49.231-.78.299a4.268 4.268 0 0 1-.96.105c-.895 0-1.626-.288-2.193-.855-.567-.568-.846-1.299-.846-2.174 0-.98.288-1.788.865-2.423.577-.634 1.385-.952 2.442-.952.27 0 .539.039.818.106.279.068.49.154.654.24v1.376a2.818 2.818 0 0 0-.683-.375 2.03 2.03 0 0 0-.712-.135c-.567 0-1.019.183-1.375.548-.346.365-.519.865-.519 1.49 0 .616.164 1.097.5 1.443.337.346.789.51 1.366.51M50.721 17.337c.116 0 .221.01.308.019.086.019.173.038.23.057v1.452a1.156 1.156 0 0 0-.326-.153 1.662 1.662 0 0 0-.53-.077c-.355 0-.653.144-.893.442-.24.298-.366.75-.366 1.375v3.086h-1.432v-6.105h1.432v.961h.02c.134-.336.326-.596.596-.779.269-.182.586-.278.961-.278M51.337 20.577c0-1.01.288-1.808.855-2.404.568-.586 1.366-.885 2.375-.885.952 0 1.702.289 2.24.856.54.568.808 1.337.808 2.298 0 .99-.288 1.78-.855 2.366-.568.586-1.347.875-2.327.875-.943 0-1.702-.28-2.25-.837-.568-.548-.846-1.308-.846-2.27m1.5-.047c0 .634.144 1.125.432 1.461.289.337.702.5 1.24.5.52 0 .924-.163 1.193-.5.27-.336.413-.836.413-1.5 0-.653-.144-1.153-.423-1.49-.279-.337-.682-.5-1.192-.5-.529 0-.933.173-1.23.529-.29.356-.433.846-.433 1.5M59.75 19.038a.63.63 0 0 0 .192.481c.135.116.423.26.866.443.577.23.98.49 1.211.778.231.289.346.635.346 1.039 0 .577-.22 1.038-.663 1.384-.442.347-1.039.52-1.789.52a3.92 3.92 0 0 1-.836-.096 3.987 3.987 0 0 1-.779-.231v-1.414c.26.183.539.327.846.433.298.106.577.163.818.163.326 0 .567-.048.72-.134.155-.087.231-.24.231-.462a.614.614 0 0 0-.24-.5c-.163-.134-.461-.298-.913-.47-.53-.222-.904-.472-1.125-.75-.222-.28-.337-.635-.337-1.059 0-.548.221-1 .654-1.355.433-.356 1-.53 1.702-.53.211 0 .452.02.721.068.27.048.49.106.663.183v1.365a3.554 3.554 0 0 0-.663-.327 2.333 2.333 0 0 0-.75-.134c-.27 0-.49.057-.635.163a.502.502 0 0 0-.24.442M63 20.577c0-1.01.288-1.808.856-2.404.567-.586 1.365-.885 2.375-.885.952 0 1.702.289 2.24.856.539.568.808 1.337.808 2.298 0 .99-.289 1.78-.856 2.366-.567.586-1.346.875-2.327.875-.942 0-1.702-.28-2.25-.837-.567-.548-.846-1.308-.846-2.27m1.49-.047c0 .634.145 1.125.433 1.461.289.337.702.5 1.24.5.52 0 .924-.163 1.193-.5.269-.336.413-.836.413-1.5 0-.653-.144-1.153-.423-1.49-.279-.337-.683-.5-1.192-.5-.529 0-.933.173-1.23.529-.29.356-.434.846-.434 1.5M74.02 18.615v3.135c0 .654.153 1.135.451 1.462.298.326.76.48 1.366.48.201 0 .413-.019.625-.067.211-.048.365-.087.451-.144v-1.193a1.302 1.302 0 0 1-.307.145 1.002 1.002 0 0 1-.298.057c-.289 0-.51-.077-.645-.23-.134-.154-.201-.423-.201-.798v-2.856h1.461v-1.173h-1.452v-1.808l-1.442.442v1.375h-2.144v-.74c0-.365.077-.644.24-.837.163-.192.394-.278.692-.278.154 0 .289.019.414.057.115.039.202.077.25.106v-1.24a1.774 1.774 0 0 0-.356-.077 3.293 3.293 0 0 0-.462-.03c-.653 0-1.192.203-1.605.616-.414.414-.625.933-.625 1.577v.846h-1.02v1.173h1.02v4.933h1.452v-4.933h2.134zM38.029 15.02v8.518h-1.48v-6.673h-.02l-2.644 6.673h-.981l-2.712-6.673h-.019v6.673h-1.365V15.02h2.115l2.452 6.318h.038L36 15.019zM32.692 11.337c-.51.288-1.086.432-1.73.432-.49 0-.924-.106-1.308-.327a2.169 2.169 0 0 1-.875-.913 2.87 2.87 0 0 1-.308-1.327c0-.52.116-.99.337-1.394a2.41 2.41 0 0 1 .952-.962c.413-.23.875-.346 1.394-.346.26 0 .52.029.779.077.26.048.47.115.634.192v.77c-.384-.26-.875-.385-1.47-.385-.357 0-.674.086-.962.26-.289.173-.51.413-.664.711a2.29 2.29 0 0 0-.23 1.038c0 .606.163 1.087.48 1.443.317.356.76.529 1.317.529.356 0 .674-.068.943-.212V9.606h-1.087V8.97h1.798v2.366zM36.837 10.058h-2.52c.01.365.125.644.318.846.202.192.461.298.788.298a1.81 1.81 0 0 0 1.135-.375v.615a1.81 1.81 0 0 1-.548.24 2.712 2.712 0 0 1-.683.087c-.548 0-.98-.163-1.279-.49-.298-.327-.452-.789-.452-1.385 0-.365.077-.702.221-.99a1.66 1.66 0 0 1 .616-.692c.26-.164.557-.25.875-.25.47 0 .846.153 1.115.461.27.308.404.73.404 1.279v.356h.01zm-.702-.548c0-.318-.077-.558-.222-.722-.144-.163-.346-.25-.615-.25a.895.895 0 0 0-.635.26c-.182.173-.288.414-.346.712h1.818zM39.567 11.644a.795.795 0 0 1-.279.087c-.115.019-.22.029-.317.029-.673 0-1.01-.375-1.01-1.116V8.625h-.615v-.577h.616v-.865l.701-.221v1.076h.895v.577h-.895v1.904c0 .24.039.414.116.51.077.096.211.144.413.144.135 0 .26-.038.366-.115v.586h.01zM43.048 6.76a.4.4 0 0 1-.125.298.427.427 0 0 1-.317.125.427.427 0 0 1-.318-.125.392.392 0 0 1-.125-.308.4.4 0 0 1 .135-.308.463.463 0 0 1 .308-.125.42.42 0 0 1 .307.125.415.415 0 0 1 .135.318zm-.096 4.923h-.702V8.048h.702v3.635zM46 11.644a.795.795 0 0 1-.279.087c-.115.019-.221.029-.317.029-.673 0-1.01-.375-1.01-1.116V8.625h-.615v-.577h.615v-.865l.702-.221v1.076h.894v.577h-.894v1.904c0 .24.039.414.116.51.076.096.211.144.413.144.135 0 .26-.038.365-.115v.586H46zM50.596 6.894a.843.843 0 0 0-.384-.096c-.395 0-.587.24-.587.721v.52h.827v.576h-.827v3.058h-.702V8.625h-.615v-.577h.615V7.49c0-.384.106-.692.327-.923.221-.23.52-.346.904-.346.192 0 .336.02.452.067v.606h-.01zM53.183 8.75a.777.777 0 0 0-.212-.087c-.096-.019-.183-.038-.25-.038-.25 0-.452.115-.606.337-.153.22-.23.51-.23.865v1.856h-.702V8.048h.702v.73h.019c.077-.25.202-.441.365-.586a.833.833 0 0 1 .568-.211 1 1 0 0 1 .336.048v.721h.01zM57.192 9.846c0 .587-.173 1.058-.51 1.404-.336.346-.788.52-1.345.52-.549 0-.99-.174-1.318-.51-.327-.337-.49-.789-.49-1.356 0-.606.173-1.077.51-1.423.336-.346.798-.52 1.384-.52.548 0 .98.164 1.289.5.326.337.48.799.48 1.385m-.72.02c0-.433-.097-.76-.28-.981-.192-.222-.452-.337-.798-.337-.346 0-.625.115-.827.356-.202.23-.298.567-.298.99 0 .414.096.731.298.962.202.23.471.346.827.346s.625-.115.808-.337c.173-.24.27-.567.27-1M63.471 11.683h-.702V9.615c0-.375-.057-.644-.173-.817-.115-.173-.317-.25-.596-.25-.23 0-.433.106-.587.317-.163.212-.24.472-.24.76v2.058h-.702V9.548c0-.663-.26-1-.77-1a.726.726 0 0 0-.595.308c-.154.202-.231.461-.231.779v2.057h-.702V8.048h.702v.567h.01c.26-.442.644-.653 1.134-.653.231 0 .443.067.635.192.183.125.317.308.404.538.144-.25.307-.432.51-.557.201-.116.432-.183.701-.183.798 0 1.193.49 1.193 1.48v2.25h.01z" fill="#FFF"/></g></g></svg>