<svg xmlns="http://www.w3.org/2000/svg" width="24" height="24" viewBox="0 0 24 24">
    <path d="M8.30357143,16.7835824 C8.2901785,16.937601 8.20982217,17.0146092 8.0625,17.0146092 C8.00223184,17.0146092 7.95033504,16.992846 7.90680804,16.949319 C7.86328103,16.905792 7.83816968,16.850547 7.83147321,16.7835824 L7.69084821,14.3628235 L7.83147321,9.10947527 C7.83147321,9.04251065 7.85491048,8.98559158 7.90178571,8.93871634 C7.94866095,8.89184111 8.00223184,8.86840384 8.0625,8.86840384 C8.12946462,8.86840384 8.1847096,8.89184111 8.22823661,8.93871634 C8.27176361,8.98559158 8.29687497,9.04251065 8.30357143,9.10947527 L8.46428571,14.3628235 L8.30357143,16.7835824 Z M11.2667411,16.7333592 C11.2667411,16.8204132 11.2366074,16.8873768 11.1763393,16.9342521 C11.1160711,16.9945202 11.0491075,17.0246538 10.9754464,17.0246538 C10.881696,17.0246538 10.8046878,16.9878239 10.7444196,16.9141628 C10.7042409,16.8672875 10.6841518,16.8103685 10.6841518,16.7434038 L10.6841518,16.7333592 C10.6104907,15.1596906 10.5736607,14.3695199 10.5736607,14.3628235 L10.6741071,8.54697527 L10.6841518,8.48670741 C10.6841518,8.37956402 10.7276781,8.29920768 10.8147321,8.24563599 C10.8683038,8.21215368 10.9218747,8.19541277 10.9754464,8.19541277 C11.0290181,8.19541277 11.082589,8.21215368 11.1361607,8.24563599 C11.2232147,8.29920768 11.2667411,8.37956402 11.2667411,8.48670741 L11.3872768,14.3728681 L11.2767857,16.4922878 L11.2667411,16.7333592 Z M0.780133929,13.0771092 L0.981026786,14.3628235 L0.780133929,15.6284485 C0.766741004,15.6887166 0.736607377,15.7188503 0.689732143,15.7188503 C0.642856908,15.7188503 0.612723281,15.6887166 0.599330357,15.6284485 L0.428571429,14.3628235 L0.599330357,13.0771092 C0.612723281,13.016841 0.642856908,12.9867074 0.689732143,12.9867074 C0.736607377,12.9867074 0.766741004,13.016841 0.780133929,13.0771092 Z M1.64397321,12.2835824 L1.90513393,14.3628235 L1.64397321,16.401886 C1.63058029,16.4621541 1.59709848,16.4922878 1.54352679,16.4922878 C1.48325863,16.4922878 1.453125,16.458806 1.453125,16.3918413 L1.22209821,14.3628235 L1.453125,12.2835824 C1.453125,12.2233143 1.48325863,12.1931806 1.54352679,12.1931806 C1.59709848,12.1931806 1.63058029,12.2233143 1.64397321,12.2835824 Z M2.56808036,11.901886 L2.81919643,14.3628235 L2.56808036,16.7434038 C2.56808036,16.8170649 2.53125037,16.8538949 2.45758929,16.8538949 C2.39062467,16.8538949 2.3504465,16.8170649 2.33705357,16.7434038 L2.12611607,14.3628235 L2.33705357,11.901886 C2.3504465,11.8215284 2.39062467,11.7813503 2.45758929,11.7813503 C2.53125037,11.7813503 2.56808036,11.8215284 2.56808036,11.901886 Z M3.51227679,11.8315735 L3.74330357,14.3628235 L3.51227679,16.8137163 C3.49888386,16.9007704 3.45200933,16.9442967 3.37165179,16.9442967 C3.28459778,16.9442967 3.24107143,16.9007704 3.24107143,16.8137163 L3.03013393,14.3628235 L3.24107143,11.8315735 C3.24107143,11.7445195 3.28459778,11.7009931 3.37165179,11.7009931 C3.45200933,11.7009931 3.49888386,11.7445195 3.51227679,11.8315735 Z M4.45647321,12.0123771 L4.66741071,14.3628235 L4.45647321,16.8338056 C4.44308029,16.940949 4.3895094,16.9945199 4.29575893,16.9945199 C4.25558016,16.9945199 4.22042426,16.9794531 4.19029018,16.949319 C4.1601561,16.9191849 4.14508929,16.8806809 4.14508929,16.8338056 L3.94419643,14.3628235 L4.14508929,12.0123771 C4.14508929,11.9721983 4.1601561,11.9370424 4.19029018,11.9069083 C4.22042426,11.8767742 4.25558016,11.8617074 4.29575893,11.8617074 C4.3895094,11.8617074 4.44308029,11.9119301 4.45647321,12.0123771 Z M5.40066964,10.5458592 L5.61160714,14.3628235 L5.40066964,16.8338056 C5.40066964,16.8806809 5.38392874,16.9225331 5.35044643,16.9593637 C5.31696412,16.9961942 5.27678595,17.0146092 5.22991071,17.0146092 C5.12276732,17.0146092 5.06250007,16.9543419 5.04910714,16.8338056 L4.86830357,14.3628235 L5.04910714,10.5458592 C5.06250007,10.4253229 5.12276732,10.3650556 5.22991071,10.3650556 C5.27678595,10.3650556 5.31696412,10.3834706 5.35044643,10.4203012 C5.38392874,10.4571317 5.40066964,10.498984 5.40066964,10.5458592 Z M6.34486607,9.68201991 L6.53571429,14.3829128 L6.34486607,16.8338056 C6.34486607,16.8873773 6.32645108,16.9325778 6.28962054,16.9694083 C6.25278999,17.0062388 6.20758955,17.0246538 6.15401786,17.0246538 C6.03348154,17.0246538 5.96651792,16.9610384 5.953125,16.8338056 L5.79241071,14.3829128 L5.953125,9.68201991 C5.96651792,9.55478714 6.03348154,9.4911717 6.15401786,9.4911717 C6.20758955,9.4911717 6.25278999,9.5095867 6.28962054,9.54641724 C6.32645108,9.58324778 6.34486607,9.62844822 6.34486607,9.68201991 Z M7.32924107,9.2802342 L7.51004464,14.3628235 L7.32924107,16.7936271 C7.31584815,16.9342528 7.24218817,17.0045646 7.10825893,17.0045646 C6.98102615,17.0045646 6.91071435,16.9342528 6.89732143,16.7936271 L6.73660714,14.3628235 L6.89732143,9.2802342 C6.89732143,9.21996604 6.9190846,9.16806924 6.96261161,9.12454224 C7.00613861,9.08101523 7.05468723,9.05925206 7.10825893,9.05925206 C7.16852709,9.05925206 7.2187498,9.08101523 7.25892857,9.12454224 C7.29910734,9.16806924 7.32254461,9.21996604 7.32924107,9.2802342 Z M9.27790179,9.24005563 L9.42857143,14.3628235 L9.27790179,16.7634931 C9.27790179,16.8304577 9.25279043,16.8890509 9.20256696,16.9392744 C9.1523435,16.9894978 9.09375033,17.0146092 9.02678571,17.0146092 C8.95982109,17.0146092 8.90290202,16.9911719 8.85602679,16.9442967 C8.80915155,16.8974215 8.7823661,16.8371542 8.77566964,16.7634931 L8.63504464,14.3628235 L8.77566964,9.24005563 C8.77566964,9.16639455 8.800781,9.10612729 8.85100446,9.05925206 C8.90122793,9.01237682 8.95982109,8.98893956 9.02678571,8.98893956 C9.09375033,8.98893956 9.1523435,9.01237682 9.20256696,9.05925206 C9.25279043,9.10612729 9.27790179,9.16639455 9.27790179,9.24005563 Z M10.2723214,9.43090384 L10.4129464,14.3728681 L10.2723214,16.7434038 C10.2723214,16.8170649 10.245536,16.8806804 10.1919643,16.9342521 C10.1383926,16.9878238 10.0747772,17.0146092 10.0011161,17.0146092 C9.92745499,17.0146092 9.86383955,16.9878238 9.81026786,16.9342521 C9.75669616,16.8806804 9.72656253,16.8170649 9.71986607,16.7434038 L9.59933036,14.3728681 L9.71986607,9.43090384 C9.72656253,9.3505463 9.75669616,9.28358268 9.81026786,9.23001099 C9.86383955,9.17643929 9.92745499,9.14965384 10.0011161,9.14965384 C10.0747772,9.14965384 10.1367185,9.17643929 10.186942,9.23001099 C10.2371654,9.28358268 10.265625,9.3505463 10.2723214,9.43090384 Z M12.4017857,14.3728681 L12.2611607,16.6931806 C12.2611607,16.7802346 12.2310271,16.8538946 12.1707589,16.9141628 C12.1104908,16.9744309 12.0368308,17.0045646 11.9497768,17.0045646 C11.8627228,17.0045646 11.7890628,16.9744309 11.7287946,16.9141628 C11.6685265,16.8538946 11.6350447,16.7802346 11.6283482,16.6931806 L11.5680804,15.5480913 L11.5078125,14.3728681 L11.6283482,7.98447527 L11.6283482,7.95434134 C11.6417411,7.85389441 11.6819193,7.77353807 11.7488839,7.71326991 C11.8091521,7.66639468 11.8761157,7.64295741 11.9497768,7.64295741 C12.0033485,7.64295741 12.0535712,7.65969832 12.1004464,7.69318063 C12.1941969,7.74675233 12.2477678,7.83380503 12.2611607,7.95434134 L12.4017857,14.3728681 Z M23.5714286,14.1820199 C23.5714286,14.965506 23.2935296,15.633468 22.7377232,16.1859262 C22.1819169,16.7383843 21.5122807,17.0146092 20.7287946,17.0146092 L12.8337054,17.0146092 C12.7466514,17.0012163 12.6729914,16.9643863 12.6127232,16.9041181 C12.5524551,16.84385 12.5223214,16.77019 12.5223214,16.683136 L12.5223214,7.65300206 C12.5223214,7.49898343 12.6160705,7.38849346 12.8035714,7.32152884 C13.3727707,7.09384913 13.9787914,6.98001099 14.6216518,6.98001099 C15.9274619,6.98001099 17.059147,7.42029676 18.0167411,8.30088152 C18.9743351,9.18146628 19.5100441,10.2646028 19.6238839,11.5503235 C19.9787964,11.4030013 20.3470963,11.3293413 20.7287946,11.3293413 C21.5122807,11.3293413 22.1819169,11.6072404 22.7377232,12.1630467 C23.2935296,12.7188531 23.5714286,13.3918374 23.5714286,14.1820199 Z"></path>
</svg>